<svg width="16" height="16" viewBox="0 0 16 16" fill="none" xmlns="http://www.w3.org/2000/svg">
<path d="M5.23488 8C5.23488 7.48232 5.36114 7.01042 5.61366 6.58428C5.86619 6.15814 6.20551 5.81881 6.63164 5.56629C7.05778 5.31376 7.52968 5.1875 8.04735 5.1875C8.49557 5.1875 8.90908 5.28378 9.28786 5.47633C9.6698 5.66888 9.98546 5.93245 10.2348 6.26705C10.4842 6.59849 10.6389 6.97412 10.6988 7.39394H9.55301C9.48988 7.06881 9.31469 6.80366 9.02745 6.59849C8.74021 6.39015 8.41351 6.28599 8.04735 6.28599C7.73169 6.28599 7.44445 6.36332 7.18562 6.51799C6.92678 6.67266 6.72003 6.87942 6.56536 7.13826C6.41069 7.3971 6.33335 7.68434 6.33335 8C6.33335 8.31566 6.41069 8.6029 6.56536 8.86174C6.72003 9.12058 6.92678 9.32734 7.18562 9.48201C7.44445 9.63668 7.73169 9.71402 8.04735 9.71402C8.41351 9.71402 8.72285 9.61143 8.97537 9.40625C9.23105 9.19792 9.39203 8.93119 9.45832 8.60606H10.6041C10.5442 9.02588 10.3974 9.40309 10.1638 9.73769C9.93022 10.0691 9.63035 10.3311 9.26419 10.5237C8.90119 10.7162 8.49557 10.8125 8.04735 10.8125C7.52968 10.8125 7.05778 10.6862 6.63164 10.4337C6.20551 10.1812 5.86619 9.84186 5.61366 9.41572C5.36114 8.98958 5.23488 8.51768 5.23488 8ZM8 13C7.31188 13 6.66479 12.8706 6.05873 12.6117C5.45584 12.3529 4.92396 11.9946 4.46311 11.5369C4.00541 11.0761 3.64557 10.5442 3.38358 9.94129C3.12474 9.33838 2.9969 8.69129 3.00006 8C3.00321 7.30871 3.13421 6.66162 3.39304 6.05871C3.65504 5.45581 4.01488 4.92551 4.47258 4.4678C4.93027 4.00694 5.46057 3.6471 6.06347 3.38826C6.66637 3.12942 7.31188 3 8 3C8.69128 3 9.33837 3.12942 9.94127 3.38826C10.5473 3.6471 11.0776 4.00694 11.5322 4.4678C11.9899 4.92551 12.3481 5.45581 12.607 6.05871C12.8658 6.66162 12.9968 7.30871 12.9999 8C13.0031 8.69129 12.8753 9.33838 12.6164 9.94129C12.3576 10.5442 11.9993 11.0761 11.5416 11.5369C11.0839 11.9946 10.5521 12.3529 9.946 12.6117C9.33995 12.8706 8.69128 13 8 13ZM8 11.9015C8.53977 11.9015 9.04639 11.8005 9.51987 11.5985C9.99335 11.3965 10.4084 11.1171 10.7651 10.7604C11.1218 10.4037 11.4012 9.99022 11.6032 9.51989C11.8052 9.0464 11.9046 8.54135 11.9015 8.00474C11.8983 7.46496 11.7957 6.95833 11.5937 6.48485C11.3917 6.01136 11.1123 5.59628 10.7557 5.23958C10.399 4.88289 9.98546 4.60354 9.51513 4.40152C9.04481 4.1995 8.53977 4.09849 8 4.09849C7.46339 4.09849 6.95992 4.1995 6.4896 4.40152C6.01928 4.60354 5.60577 4.88447 5.24908 5.24432C4.8924 5.60101 4.61147 6.0161 4.40629 6.48958C4.20427 6.95991 4.10169 7.46496 4.09853 8.00474C4.09537 8.53819 4.1948 9.04167 4.39682 9.51515C4.59884 9.98548 4.87819 10.399 5.23488 10.7557C5.59472 11.1124 6.00981 11.3933 6.48013 11.5985C6.95361 11.8005 7.46023 11.9015 8 11.9015Z" fill="white"/>
</svg>
