<svg width="40" height="23" viewBox="0 0 40 23" fill="none" xmlns="http://www.w3.org/2000/svg">
<path fill-rule="evenodd" clip-rule="evenodd" d="M21.0443 17.0659C22.0383 15.3812 22.6087 13.4162 22.6087 11.3178C22.6087 9.21947 22.0383 7.25447 21.0443 5.56978C22.7896 3.24491 25.5671 1.7412 28.6957 1.7412C33.9784 1.7412 38.2609 6.0288 38.2609 11.3178C38.2609 16.6069 33.9784 20.8945 28.6957 20.8945C25.5671 20.8945 22.7896 19.3908 21.0443 17.0659ZM20 4.08561C17.9264 1.58926 14.8008 0 11.3043 0C5.06113 0 0 5.06717 0 11.3178C0 17.5686 5.06113 22.6357 11.3043 22.6357C14.8008 22.6357 17.9264 21.0465 20 18.5501C22.0736 21.0465 25.1993 22.6357 28.6957 22.6357C34.939 22.6357 40 17.5686 40 11.3178C40 5.06717 34.939 0 28.6957 0C25.1993 0 22.0736 1.58926 20 4.08561Z" fill="white"/>
</svg>
